<svg width="87" height="85" viewBox="0 0 87 85" fill="none" xmlns="http://www.w3.org/2000/svg">
<path d="M43.14 0.5C18.8737 0.5 0 19.3737 0 43.64C0 71.9506 25.6144 84.0837 29.6587 84.0837C32.355 84.0837 32.355 82.7356 32.355 81.3875V74.6469C22.9181 77.3431 18.8737 71.9506 17.5256 67.9062C17.5256 67.9062 17.5256 66.5581 14.8294 63.8619C13.4812 62.5137 8.08875 59.8175 13.4812 59.8175C17.5256 59.8175 20.2219 65.21 20.2219 65.21C24.2662 70.6025 29.6587 69.2544 32.355 67.9062C32.355 65.21 35.0512 62.5137 35.0512 62.5137C24.2662 61.1656 16.1775 57.1212 16.1775 42.2919C16.1775 36.8994 17.5256 32.855 20.2219 30.1587C20.2219 30.1587 17.5256 24.7662 20.2219 18.0256C20.2219 18.0256 26.9625 18.0256 32.355 23.4181C36.3994 20.7219 49.8806 20.7219 53.925 23.4181C59.3175 18.0256 66.0581 18.0256 66.0581 18.0256C68.7544 27.4625 66.0581 30.1587 66.0581 30.1587C68.7544 32.855 70.1025 36.8994 70.1025 42.2919C70.1025 57.1212 60.6656 61.1656 51.2287 62.5137C52.5769 63.8619 53.925 66.5581 53.925 70.6025V81.3875C53.925 82.7356 53.925 84.0837 56.6212 84.0837C60.6656 84.0837 86.28 71.9506 86.28 43.64C86.28 19.3737 67.4062 0.5 43.14 0.5Z" fill="white"/>
</svg>
