<svg width="48" height="48" viewBox="0 0 48 48" fill="none" xmlns="http://www.w3.org/2000/svg">
<path d="M14.0717 34.4761L10.5872 35.2711V12.7046L14.0717 13.5011V34.4761Z" fill="#F0F0F0"/>
<path d="M18.4192 35.808L14.0716 37.0435V10.963L18.4192 12.197V35.808Z" fill="#F0F0F0"/>
<path d="M23.9963 37.1766L18.4193 39.2175V8.78906L23.9963 10.8291V37.1766Z" fill="#F0F0F0"/>
<path d="M38.9079 34.544L23.9959 42V6L38.9079 13.456V34.544Z" fill="#F0F0F0"/>
<path d="M21.0238 7.48649L23.9963 6V42L21.0238 40.514V7.48649Z" fill="#CBC8C7"/>
<path d="M16.118 9.93905L18.4191 8.78857V39.2116L16.118 38.0611V9.93905Z" fill="#CBC8C7"/>
<path d="M12.2387 11.879L14.0716 10.9625V37.0375L12.2387 36.1204V11.879Z" fill="#CBC8C7"/>
<path d="M10.5871 12.7045L9.09212 13.452V34.5484L10.5871 35.2955V12.7045Z" fill="#CBC8C7"/>
</svg>
