<svg width="48" height="48" viewBox="0 0 48 48" fill="none" xmlns="http://www.w3.org/2000/svg">
<path d="M23.9999 40.5809L30.6285 20.1803H17.3713L23.9999 40.5809Z" fill="#CAC2C1"/>
<path d="M24 40.5809L17.3714 20.1803H8.08154L24 40.5809Z" fill="#EAE2DE"/>
<path d="M8.08158 20.1804L6.06727 26.3799C5.88354 26.9453 6.08477 27.5648 6.56579 27.9142L24 40.581L8.08158 20.1804Z" fill="#F8F4EF"/>
<path d="M8.08154 20.1804H17.3714L13.3789 7.89325C13.1736 7.26092 12.2791 7.26109 12.0738 7.89325L8.08154 20.1804Z" fill="#CAC2C1"/>
<path d="M24 40.5809L30.6286 20.1803H39.9184L24 40.5809Z" fill="#EAE2DE"/>
<path d="M39.9184 20.1804L41.9327 26.3799C42.1165 26.9453 41.9152 27.5648 41.4342 27.9142L24 40.581L39.9184 20.1804Z" fill="#F8F4EF"/>
<path d="M39.9184 20.1804H30.6285L34.621 7.89325C34.8263 7.26092 35.7208 7.26109 35.9261 7.89325L39.9184 20.1804Z" fill="#CAC2C1"/>
</svg>
