<svg width="505" height="404" viewBox="0 0 505 404" fill="none" xmlns="http://www.w3.org/2000/svg">
<path d="M201.196 206.419C206.127 211.349 214.119 211.349 219.049 206.419L227.972 197.496C232.903 192.565 232.903 184.574 227.972 179.643L199.792 151.471L227.964 123.291C232.895 118.36 232.895 110.369 227.964 105.438L219.041 96.5155C214.111 91.5848 206.119 91.5848 201.188 96.5155L155.163 142.541C150.232 147.471 150.232 155.463 155.163 160.394L201.196 206.419ZM276.94 197.504L285.862 206.427C290.793 211.357 298.785 211.357 303.715 206.427L349.74 160.402C354.671 155.471 354.671 147.479 349.74 142.548L303.715 96.5234C298.785 91.5927 290.793 91.5927 285.862 96.5234L276.94 105.446C272.009 110.377 272.009 118.368 276.94 123.299L305.112 151.471L276.94 179.651C272.009 184.582 272.009 192.573 276.94 197.504ZM492.281 328.187H301.001C300.418 343.816 289.397 353.433 275.172 353.433H227.207C212.462 353.433 201.157 339.65 201.354 328.187H12.6226C5.68017 328.187 0 333.868 0 340.81V353.433C0 381.202 22.7207 403.923 50.4904 403.923H454.413C482.183 403.923 504.904 381.202 504.904 353.433V340.81C504.904 333.868 499.223 328.187 492.281 328.187ZM454.413 37.8678C454.413 17.0405 437.373 0 416.545 0H88.3581C67.5309 0 50.4904 17.0405 50.4904 37.8678V302.942H454.413V37.8678ZM403.923 252.452H100.981V50.4904H403.923V252.452Z" fill="#c9c9c9"/>
</svg>
