<svg width="505" height="304" viewBox="0 0 505 304" fill="none" xmlns="http://www.w3.org/2000/svg">
<path d="M342.985 0.364746H275.218C268.907 0.364746 262.832 2.73148 258.177 6.99161L180.627 77.9937C180.548 78.0726 180.47 78.2304 180.391 78.3092C167.295 90.6163 167.531 110.26 178.734 122.488C188.753 133.454 209.817 136.373 222.992 124.618C223.071 124.539 223.229 124.539 223.307 124.461L286.342 66.7122C291.469 62.0577 299.516 62.3732 304.171 67.5012C308.904 72.6291 308.51 80.5971 303.382 85.3306L282.791 104.186L397.657 197.435C399.945 199.328 401.996 201.379 403.889 203.51V50.8551L360.815 7.78052C356.16 3.04705 349.691 0.364746 342.985 0.364746ZM429.213 51.0129V227.65C429.213 241.614 440.495 252.895 454.459 252.895H504.949V51.0129H429.213ZM467.081 227.65C460.139 227.65 454.459 221.97 454.459 215.028C454.459 208.085 460.139 202.405 467.081 202.405C474.024 202.405 479.704 208.085 479.704 215.028C479.704 221.97 474.024 227.65 467.081 227.65ZM0.0454102 252.817H50.5358C64.4995 252.817 75.781 241.535 75.781 227.571V51.0129H0.0454102V252.817ZM37.9132 202.405C44.8556 202.405 50.5358 208.085 50.5358 215.028C50.5358 221.97 44.8556 227.65 37.9132 227.65C30.9708 227.65 25.2906 221.97 25.2906 215.028C25.2906 208.006 30.9708 202.405 37.9132 202.405ZM381.8 217.079L264.015 121.463L240.348 143.158C216.917 164.537 181.022 162.486 160.116 139.687C138.894 116.493 140.551 80.5971 163.587 59.4542L228.12 0.364746H162.009C155.303 0.364746 148.913 3.04705 144.18 7.78052L101.026 50.8551V227.492H115.463L186.86 292.104C208.476 309.697 240.269 306.384 257.862 284.767L258.02 284.61L272.141 296.838C284.685 307.094 303.224 305.121 313.401 292.578L338.173 262.126L342.433 265.597C353.241 274.354 369.177 272.776 377.934 261.889L385.429 252.659C394.265 241.772 392.608 225.915 381.8 217.079Z" fill="#c9c9c9"/>
</svg>
