<svg width="87" height="87" viewBox="0 0 87 87" fill="none" xmlns="http://www.w3.org/2000/svg">
<path d="M60.6567 29.8879C60.2823 28.9184 59.709 28.038 58.9738 27.3035C58.2385 26.569 57.3575 25.9967 56.3876 25.6234C55.0521 25.1287 53.6415 24.8673 52.2174 24.8504C49.8492 24.7426 49.1392 24.7156 43.14 24.7156C37.1409 24.7156 36.4308 24.7426 34.0626 24.8504C32.637 24.8667 31.2249 25.1282 29.8879 25.6234C28.9184 25.9977 28.038 26.571 27.3035 27.3062C26.569 28.0415 25.9967 28.9225 25.6234 29.8924C25.1287 31.2279 24.8673 32.6385 24.8505 34.0626C24.7426 36.4308 24.7156 37.1408 24.7156 43.14C24.7156 49.1391 24.7426 49.8492 24.8505 52.2174C24.8668 53.643 25.1282 55.0551 25.6234 56.3921C25.9977 57.3616 26.571 58.242 27.3063 58.9765C28.0415 59.711 28.9225 60.2833 29.8924 60.6566C31.228 61.1513 32.6386 61.4127 34.0626 61.4295C36.4308 61.5374 37.1409 61.5599 43.14 61.5599C49.1392 61.5599 49.8492 61.5374 52.2174 61.425C53.6427 61.4102 55.0549 61.1502 56.3921 60.6566C57.3616 60.2823 58.242 59.709 58.9765 58.9737C59.711 58.2385 60.2833 57.3575 60.6567 56.3876C61.1513 55.052 61.4127 53.6414 61.4296 52.2174C61.5374 49.8492 61.5599 49.1391 61.5599 43.14C61.5599 37.1408 61.5374 36.4308 61.4251 34.0626C61.4102 32.6373 61.1503 31.2251 60.6567 29.8879ZM43.14 54.6799C40.8576 54.6799 38.6265 54.0031 36.7288 52.7351C34.831 51.4671 33.3519 49.6648 32.4785 47.5561C31.6051 45.4475 31.3765 43.1272 31.8218 40.8887C32.2671 38.6501 33.3661 36.5939 34.98 34.98C36.5939 33.3661 38.6501 32.267 40.8887 31.8218C43.1272 31.3765 45.4475 31.605 47.5562 32.4785C49.6648 33.3519 51.4671 34.831 52.7351 36.7287C54.0032 38.6265 54.68 40.8576 54.68 43.14C54.68 46.2006 53.4642 49.1358 51.3 51.3C49.1358 53.4641 46.2006 54.6799 43.14 54.6799ZM55.1338 33.8424C54.6006 33.8424 54.0793 33.6843 53.6359 33.388C53.1925 33.0918 52.8469 32.6707 52.6428 32.178C52.4387 31.6853 52.3854 31.1432 52.4894 30.6202C52.5934 30.0971 52.8502 29.6167 53.2273 29.2396C53.6044 28.8626 54.0848 28.6058 54.6078 28.5017C55.1308 28.3977 55.673 28.4511 56.1656 28.6552C56.6583 28.8592 57.0794 29.2048 57.3757 29.6482C57.6719 30.0916 57.8301 30.6129 57.8301 31.1462C57.8301 31.8613 57.546 32.5471 57.0404 33.0527C56.5347 33.5584 55.8489 33.8424 55.1338 33.8424ZM50.6311 43.14C50.6311 44.6216 50.1918 46.0699 49.3686 47.3018C48.5455 48.5337 47.3755 49.4939 46.0067 50.0608C44.6379 50.6278 43.1317 50.7762 41.6786 50.4871C40.2254 50.1981 38.8907 49.4846 37.843 48.437C36.7954 47.3893 36.0819 46.0546 35.7929 44.6014C35.5038 43.1483 35.6522 41.6421 36.2192 40.2733C36.7861 38.9045 37.7463 37.7345 38.9782 36.9114C40.2101 36.0883 41.6584 35.6489 43.14 35.6489C45.1268 35.6489 47.0322 36.4381 48.437 37.843C49.8419 39.2478 50.6311 41.1532 50.6311 43.14ZM43.14 0C34.6077 0 26.2671 2.53012 19.1727 7.2704C12.0784 12.0107 6.54902 18.7482 3.28386 26.631C0.0186918 34.5138 -0.835624 43.1878 0.828942 51.5562C2.49351 59.9245 6.60219 67.6113 12.6354 73.6446C18.6687 79.6778 26.3555 83.7865 34.7238 85.4511C43.0922 87.1156 51.7662 86.2613 59.649 82.9961C67.5318 79.731 74.2693 74.2016 79.0096 67.1073C83.7499 60.013 86.28 51.6723 86.28 43.14C86.28 31.6986 81.7349 20.7257 73.6446 12.6354C65.5543 4.54509 54.5815 0 43.14 0ZM65.4739 52.4016C65.4359 54.2662 65.0819 56.1108 64.4269 57.857C63.8498 59.3493 62.9673 60.7045 61.8359 61.8359C60.7046 62.9673 59.3493 63.8498 57.857 64.4269C56.1123 65.0813 54.2692 65.4354 52.4061 65.4739C50.0065 65.5818 49.2425 65.6087 43.14 65.6087C37.0375 65.6087 36.2736 65.5818 33.8739 65.4739C32.0108 65.4354 30.1678 65.0813 28.423 64.4269C26.9307 63.8498 25.5755 62.9673 24.4441 61.8359C23.3127 60.7045 22.4302 59.3493 21.8531 57.857C21.1987 56.1122 20.8446 54.2692 20.8061 52.4061C20.6982 50.0064 20.6713 49.2425 20.6713 43.14C20.6713 37.0375 20.6982 36.2735 20.8061 33.8739C20.8432 32.0111 21.1957 30.168 21.8486 28.423C22.4257 26.9294 23.3087 25.573 24.4409 24.4408C25.573 23.3087 26.9294 22.4257 28.423 21.8486C30.168 21.1957 32.0111 20.8432 33.8739 20.8061C36.2736 20.6982 37.0375 20.6712 43.14 20.6712C49.2425 20.6712 50.0065 20.6982 52.4061 20.8061C54.2689 20.8432 56.112 21.1957 57.857 21.8486C59.3498 22.4262 60.7053 23.3094 61.8367 24.4416C62.968 25.5737 63.8503 26.9299 64.4269 28.423C65.0814 30.1677 65.4354 32.0108 65.4739 33.8739C65.5818 36.2735 65.6088 37.0375 65.6088 43.14C65.6088 49.2425 65.5818 50.0019 65.4739 52.4016Z" fill="white"/>
</svg>
