<svg width="102" height="102" viewBox="0 0 102 102" fill="none" xmlns="http://www.w3.org/2000/svg">
<path d="M0 0H101.823V101.823H0V0Z" fill="white"/>
<path d="M68.3995 79.5491C69.2671 81.3114 70.615 82.7926 72.2878 83.822C73.9607 84.8515 75.8904 85.3872 77.8545 85.3676C81.8183 85.3676 84.353 83.3856 84.353 80.6401C84.353 77.3672 81.7493 76.1962 77.3854 74.287L74.9926 73.2615C68.0832 70.3196 63.5011 66.6358 63.5011 58.8463C63.5011 51.6714 68.9559 46.2057 77.5127 46.2057C80.2827 46.0057 83.0502 46.6257 85.4701 47.9882C87.8901 49.3508 89.8553 51.3957 91.1206 53.8679L83.6402 58.65C83.153 57.4242 82.3047 56.3754 81.2077 55.6428C80.1108 54.9102 78.8171 54.5284 77.4981 54.5479C76.9227 54.4903 76.3416 54.5532 75.7918 54.7326C75.242 54.912 74.7356 55.204 74.3049 55.5899C73.8741 55.9758 73.5285 56.4472 73.29 56.974C73.0516 57.5009 72.9255 58.0717 72.9197 58.65C72.9197 61.5192 74.698 62.6829 78.8037 64.4684L81.1965 65.4939C89.3278 68.9813 93.9244 72.5342 93.9244 80.5237C93.9244 89.1386 87.1568 93.8589 78.0691 93.8589C74.5282 94.0845 70.9977 93.2806 67.9036 91.5441C64.8095 89.8077 62.284 87.2129 60.6319 84.073L68.3995 79.5491ZM34.598 80.3782C36.0999 83.0438 37.4672 85.2985 40.7546 85.2985C43.8966 85.2985 45.8821 84.0693 45.8821 79.2873V46.7512H55.4498V79.4146C55.4498 89.3205 49.6314 93.8298 41.1619 93.8298C38.1681 93.9934 35.1949 93.2473 32.6331 91.6896C30.0713 90.1319 28.0408 87.8354 26.8085 85.1021L34.598 80.3782Z" fill="black"/>
</svg>
