<svg width="87" height="87" viewBox="0 0 87 87" fill="none" xmlns="http://www.w3.org/2000/svg">
<path fill-rule="evenodd" clip-rule="evenodd" d="M0 43.14C0 19.3144 19.3144 0 43.14 0C66.9657 0 86.28 19.3144 86.28 43.14C86.28 66.9657 66.9657 86.28 43.14 86.28C19.3144 86.28 0 66.9657 0 43.14ZM22.1092 35.8601V64.71H31.2765V35.8601H22.1092ZM21.57 26.6929C21.57 29.6587 23.727 31.8158 26.6929 31.8158C29.6587 31.8158 31.8158 29.6587 31.8158 26.6929C31.8158 23.727 29.6587 21.57 26.6929 21.57C23.9966 21.57 21.57 23.727 21.57 26.6929ZM55.5428 64.71H64.1707V46.9147C64.1707 38.0171 58.7782 35.0512 53.6554 35.0512C49.0717 35.0512 45.8363 38.0171 45.0274 39.9045V35.8601H36.3994V64.71H45.5666V49.3414C45.5666 45.297 48.2629 43.14 50.9591 43.14C53.6554 43.14 55.5428 44.4881 55.5428 49.0718V64.71Z" fill="white"/>
</svg>
