<svg width="500" height="500" viewBox="0 0 500 500" fill="none" xmlns="http://www.w3.org/2000/svg">
<path d="M244.456 199.474C252.487 182.682 261.149 169.594 275.782 157.378C290.481 145.106 316.227 126.444 335.779 138.887C352.628 149.609 361.587 169.429 364.204 188.655C368.063 217.013 359.3 246.49 347.041 271.863C324.78 317.937 291.031 368.662 240.03 385.414C221.652 391.451 200.446 387.729 187.017 373.611C167.485 353.078 147.583 327.403 138.921 300.14C132.531 280.026 129.209 257.76 128.692 236.652C128.186 215.968 129.189 191.443 140.397 173.311C151.582 155.215 170.827 137.686 192.426 134.363C207.757 132.004 228.155 143.302 236.293 156.296C242.968 166.954 247.296 181.804 249.768 194.162" stroke="white" stroke-width="8" stroke-linecap="round"/>
<path d="M219.671 240.193C223.275 235.003 237.918 219.382 233.637 235.078C232.186 240.401 227.335 257.589 219.179 256.618C216.947 256.352 228.401 247.376 229.605 246.783C231.785 245.708 236.701 243.293 239.342 243.93C241.595 244.474 239.156 247.019 238.457 247.766C234.395 252.108 227.832 253.076 222.425 254.848C221.829 255.043 212.799 258.836 217.311 258.585C219.27 258.476 223.947 256.869 219.868 259.175C204.665 267.768 187.662 273.53 171.28 279.338C139.296 290.677 106.59 301.229 72.8269 305.648C68.4617 306.219 55.4892 306.343 59.7456 307.468C61.7935 308.009 68.7648 307.773 69.1877 307.763C84.5092 307.4 99.799 306.237 115.12 305.796C184.051 303.81 253.21 304.307 322.157 305.206C371.935 305.854 421.525 308.004 471.067 312.779" stroke="white" stroke-width="8" stroke-linecap="round"/>
</svg>
