<svg width="102" height="115" viewBox="0 0 102 115" fill="none" xmlns="http://www.w3.org/2000/svg">
<path fill-rule="evenodd" clip-rule="evenodd" d="M19.5163 33.9595L14.1206 30.8699C13.7814 30.67 13.5708 30.3093 13.5708 29.9179V23.3438C13.5708 22.9523 13.3626 22.5892 13.0228 22.3945L10.7259 21.0712C10.5594 20.9716 10.3668 20.9227 10.1803 20.9227C9.98876 20.9227 9.80145 20.9716 9.63051 21.0712L7.33208 22.3945C6.992 22.5894 6.78472 22.9526 6.78472 23.3438V29.9179C6.78472 30.3093 6.57655 30.6676 6.23602 30.8699L0.838528 33.9595C0.670957 34.0623 0.462783 34.0623 0.293642 33.9595C0.121809 33.8651 0.0199651 33.6827 0.0199651 33.4869L0 19.4143C0 19.0197 0.210417 18.6572 0.548924 18.4616L9.63029 13.2352C9.7862 13.1448 9.95781 13.0984 10.131 13.091H10.2256C10.3997 13.0984 10.5713 13.1448 10.7257 13.2352L19.8064 18.4618C20.1473 18.6576 20.3544 19.0199 20.3544 19.4145L20.3369 33.4871C20.3369 33.683 20.2317 33.8653 20.0641 33.9598C19.897 34.0625 19.6855 34.0625 19.5163 33.9595ZM54.4501 30.1875V19.6996C54.4501 19.3075 54.6591 18.9459 54.9981 18.7503L64.0839 13.5071C64.4222 13.3113 64.8401 13.3106 65.1802 13.5062L67.454 14.8172C67.5733 14.8861 67.7203 14.8861 67.8387 14.8172C67.9565 14.7483 68.0303 14.6216 68.0303 14.4847V0.548076C68.0303 0.353137 68.1332 0.174125 68.3006 0.074749C68.469 -0.0232812 68.6763 -0.0248515 68.8464 0.0698138L74.2522 3.08654C74.6003 3.27969 74.8152 3.64713 74.8152 4.04441V30.1875C74.8152 30.5799 74.6061 30.9413 74.2663 31.1378L65.1807 36.3843C64.8415 36.5817 64.4227 36.5817 64.0826 36.3843L54.9985 31.1378C54.6591 30.9413 54.4501 30.5796 54.4501 30.1875ZM61.2166 26.7421C61.2166 26.8399 61.2687 26.9303 61.3532 26.9792L64.4727 28.777C64.5573 28.825 64.6618 28.825 64.7464 28.777L67.8658 26.9792C67.9504 26.9303 68.0025 26.8399 68.0025 26.7421V23.1399C68.0025 23.0421 67.9504 22.9508 67.8658 22.9028L64.7473 21.1008C64.6618 21.0519 64.5573 21.0519 64.4718 21.1008L61.3523 22.9028C61.2687 22.9508 61.2166 23.0421 61.2166 23.1399V26.7421ZM101.347 18.6076L92.3213 13.3663C91.9819 13.1688 91.5625 13.1682 91.2226 13.3654L82.1403 18.6076C81.8012 18.8035 81.5923 19.1657 81.5923 19.5579V30.0424C81.5923 30.437 81.8045 30.8001 82.1464 30.996L91.1715 36.1377C91.5037 36.3287 91.9126 36.3293 92.2469 36.1445L97.7052 33.1105C97.8783 33.0133 97.9862 32.8319 97.9871 32.6345C97.9887 32.4371 97.8835 32.2538 97.7117 32.1551L88.5731 26.9095C88.4031 26.8116 88.2976 26.6299 88.2976 26.4334V23.1482C88.2976 22.9524 88.4022 22.7709 88.5722 22.6722L91.4164 21.0319C91.5856 20.9348 91.7946 20.9348 91.9635 21.0319L94.8096 22.6722C94.9796 22.7709 95.0841 22.9526 95.0841 23.1482V25.7335C95.0841 25.9294 95.1893 26.1109 95.3594 26.2087C95.5294 26.3058 95.7383 26.3058 95.9083 26.2078L101.347 23.0459C101.686 22.8494 101.894 22.488 101.894 22.0965V19.5563C101.894 19.1648 101.686 18.8032 101.347 18.6076ZM27.7926 30.9437L36.8733 36.19C37.2133 36.3859 37.631 36.3859 37.9711 36.19L47.0552 30.9437C47.3944 30.7472 47.6032 30.3856 47.6032 29.9935V19.5016C47.6032 19.1101 47.3941 18.7469 47.0543 18.5513L37.9711 13.3099C37.631 13.1134 37.2133 13.1134 36.8739 13.3099L27.7926 18.5513C27.4525 18.7471 27.2436 19.1103 27.2436 19.5016V29.9935C27.2436 30.3858 27.4527 30.7472 27.7926 30.9437ZM81.8913 55.1444L53.8879 38.9616C52.1308 37.9599 49.7742 37.9599 48.0023 38.9616L19.9979 55.1444C18.1836 56.1893 17.0608 58.1495 17.0608 60.2489V92.5682C17.0608 94.6663 18.1836 96.6289 19.9979 97.6754L27.3406 101.905C30.8986 103.657 32.1741 103.657 33.7919 103.657C39.0584 103.657 42.0848 100.471 42.0848 94.9148V63.007C42.0848 62.5557 41.7167 62.2001 41.2732 62.2001H37.7217C37.2705 62.2001 36.9083 62.5557 36.9083 63.007V94.9148C36.9083 97.3777 34.3593 99.8287 30.1973 97.7501L22.5256 93.3154C22.2553 93.1687 22.0835 92.8784 22.0835 92.5682V60.2489C22.0835 59.9423 22.2553 59.637 22.5272 59.4811L50.5149 43.3263C50.7743 43.1753 51.1193 43.1753 51.3773 43.3263L79.3708 59.4768C79.6384 59.637 79.8053 59.9319 79.8053 60.2487V92.5679C79.8053 92.8782 79.6387 93.1749 79.3776 93.3241L51.3725 109.489C51.133 109.635 50.7655 109.635 50.5051 109.489L43.3217 105.223C43.1079 105.101 42.8343 105.054 42.6268 105.172C40.6383 106.301 40.2619 106.449 38.3994 107.096C37.9384 107.257 37.2575 107.533 38.6524 108.312L48.0027 113.844C48.8982 114.363 49.9173 114.63 50.9398 114.63C51.9771 114.63 52.9928 114.363 53.8886 113.844L81.892 97.6751C83.7055 96.6197 84.8338 94.666 84.8338 92.5679V60.2489C84.8334 58.1495 83.7048 56.1933 81.8913 55.1444ZM60.6933 89.4852C52.3365 89.4852 50.4981 87.3858 49.8821 83.2297C49.8108 82.786 49.4308 82.4551 48.975 82.4551H44.8918C44.3859 82.4551 43.9799 82.8598 43.9799 83.3681C43.9799 88.6858 46.8746 95.0292 60.6935 95.0292C70.6995 95.0292 76.4371 91.0903 76.4371 84.2098C76.4371 77.3869 71.8265 75.5726 62.1231 74.2874C52.3158 72.9897 51.3194 72.3205 51.3194 70.0237C51.3194 68.1313 52.1635 65.6006 59.4274 65.6006C65.9144 65.6006 68.3057 66.9984 69.2892 71.3694C69.3755 71.7815 69.7504 72.0819 70.1748 72.0819H74.2735C74.5281 72.0819 74.7695 71.9724 74.9417 71.7916C75.1149 71.6 75.2071 71.3503 75.1829 71.0883C74.5487 63.5557 69.5427 60.0457 59.4272 60.0457C50.4227 60.0457 45.0528 63.8458 45.0528 70.215C45.0528 77.1272 50.396 79.0386 59.0357 79.8911C69.3753 80.9061 70.178 82.4161 70.178 84.4509C70.178 87.9811 67.3461 89.4852 60.6933 89.4852ZM91.8476 22.5546C91.783 22.5165 91.7027 22.5165 91.6378 22.5546L89.8955 23.5605C89.83 23.598 89.7901 23.6675 89.7901 23.7422V25.7564C89.7901 25.8311 89.83 25.9009 89.8955 25.9381L91.6378 26.944C91.7024 26.9815 91.7827 26.9815 91.8476 26.944L93.5913 25.9381C93.657 25.9009 93.6967 25.8311 93.6967 25.7564V23.7422C93.6967 23.6675 93.657 23.598 93.5913 23.5605L91.8476 22.5546Z" fill="white"/>
</svg>
